<?xml version="1.0" encoding="UTF-8" standalone="no"?>
<!-- Created with Inkscape (http://www.inkscape.org/) -->

<svg
   width="9.5846214mm"
   height="6.1209121mm"
   viewBox="0 0 9.5846214 6.1209121"
   version="1.1"
   id="svg1"
   xml:space="preserve"
   inkscape:version="1.3 (0e150ed6c4, 2023-07-21)"
   sodipodi:docname="bintang.svg"
   xmlns:inkscape="http://www.inkscape.org/namespaces/inkscape"
   xmlns:sodipodi="http://sodipodi.sourceforge.net/DTD/sodipodi-0.dtd"
   xmlns="http://www.w3.org/2000/svg"
   xmlns:svg="http://www.w3.org/2000/svg"><sodipodi:namedview
     id="namedview1"
     pagecolor="#ffffff"
     bordercolor="#000000"
     borderopacity="0.25"
     inkscape:showpageshadow="2"
     inkscape:pageopacity="0.0"
     inkscape:pagecheckerboard="0"
     inkscape:deskcolor="#d1d1d1"
     inkscape:document-units="mm"
     inkscape:zoom="1.0847363"
     inkscape:cx="-133.67304"
     inkscape:cy="895.60936"
     inkscape:window-width="1858"
     inkscape:window-height="1057"
     inkscape:window-x="-8"
     inkscape:window-y="-8"
     inkscape:window-maximized="1"
     inkscape:current-layer="layer1" /><defs
     id="defs1" /><g
     inkscape:label="Layer 1"
     inkscape:groupmode="layer"
     id="layer1"
     transform="translate(68.13933,-206.89764)"><path
       id="path6"
       style="fill:#f9f9f9;stroke-width:7.76843;stroke-linecap:round"
       d="m -64.138865,207.78767 c -0.240507,0 -0.469391,0.0475 -0.678512,0.1328 l 0.649573,1.2237 1.76475,0.20309 -1.23455,1.27692 0.272335,1.34618 h 3.021004 c 0.991337,0 1.789555,-0.79822 1.789555,-1.78956 v -0.60358 c 0,-0.99134 -0.798218,-1.78955 -1.789555,-1.78955 z"
       sodipodi:nodetypes="scccccsssss" /><path
       sodipodi:type="star"
       style="fill:#ffff00;fill-opacity:1;stroke:#000000;stroke-width:1.01498;stroke-linecap:round;stroke-dasharray:none;stroke-opacity:1;paint-order:stroke fill markers"
       id="path7"
       inkscape:flatsided="false"
       sodipodi:sides="5"
       sodipodi:cx="-84.577484"
       sodipodi:cy="334.89511"
       sodipodi:r1="4.5247688"
       sodipodi:r2="2.2623847"
       sodipodi:arg1="0.52359878"
       sodipodi:arg2="1.1519173"
       inkscape:rounded="0"
       inkscape:randomized="0"
       d="m -80.658919,337.1575 -2.99837,-0.1956 -1.860947,2.3591 -0.740528,-2.91206 -2.818702,-1.04086 2.540699,-1.60416 0.118894,-3.00239 2.310765,1.92063 2.892182,-0.81471 -1.112567,2.79118 z"
       inkscape:transform-center-x="0.024571494"
       inkscape:transform-center-y="-0.23193895"
       transform="matrix(0.54694587,0.22428293,-0.22428293,0.54694587,56.449182,46.048614)" /><path
       style="font-weight:bold;font-size:3.88477px;line-height:1;font-family:Poppins;-inkscape-font-specification:'Poppins Bold';text-align:center;letter-spacing:-0.275171px;text-anchor:middle;fill:#1a1a1a;stroke-width:8.93191;stroke-linecap:round"
       d="m -61.618987,209.31393 q 0.01554,-0.41567 0.271934,-0.64099 0.256395,-0.22531 0.695374,-0.22531 0.291358,0 0.497251,0.101 0.209777,0.101 0.314666,0.27582 0.108774,0.17481 0.108774,0.39236 0,0.25639 -0.128198,0.41955 -0.128197,0.15928 -0.299127,0.21755 v 0.0155 q 0.221432,0.0738 0.349629,0.24474 0.128198,0.17093 0.128198,0.43898 0,0.24086 -0.112659,0.42733 -0.108773,0.18258 -0.322436,0.28747 -0.209777,0.10489 -0.501135,0.10489 -0.466172,0 -0.745876,-0.2292 -0.275818,-0.22921 -0.291357,-0.69149 h 0.644871 q 0.0039,0.17093 0.09712,0.27193 0.09323,0.0971 0.271934,0.0971 0.151506,0 0.233086,-0.0855 0.08546,-0.0893 0.08546,-0.23308 0,-0.18647 -0.120428,-0.26805 -0.116543,-0.0855 -0.376823,-0.0855 h -0.124313 v -0.53998 h 0.124313 q 0.198123,0 0.318551,-0.066 0.124313,-0.0699 0.124313,-0.24474 0,-0.13985 -0.0777,-0.21755 -0.07769,-0.0777 -0.213662,-0.0777 -0.147621,0 -0.221432,0.0893 -0.06993,0.0893 -0.08158,0.22143 z"
       id="text7"
       aria-label="3" /></g></svg>
