<?xml version="1.0" encoding="UTF-8" standalone="no"?>
<!-- Created with Inkscape (http://www.inkscape.org/) -->

<svg
   width="9.5846214mm"
   height="6.1209121mm"
   viewBox="0 0 9.5846214 6.1209121"
   version="1.1"
   id="svg1"
   xml:space="preserve"
   inkscape:version="1.3 (0e150ed6c4, 2023-07-21)"
   sodipodi:docname="bintang.svg"
   xmlns:inkscape="http://www.inkscape.org/namespaces/inkscape"
   xmlns:sodipodi="http://sodipodi.sourceforge.net/DTD/sodipodi-0.dtd"
   xmlns="http://www.w3.org/2000/svg"
   xmlns:svg="http://www.w3.org/2000/svg"><sodipodi:namedview
     id="namedview1"
     pagecolor="#ffffff"
     bordercolor="#000000"
     borderopacity="0.25"
     inkscape:showpageshadow="2"
     inkscape:pageopacity="0.0"
     inkscape:pagecheckerboard="0"
     inkscape:deskcolor="#d1d1d1"
     inkscape:document-units="mm"
     inkscape:zoom="1.0847363"
     inkscape:cx="-133.67304"
     inkscape:cy="895.60936"
     inkscape:window-width="1858"
     inkscape:window-height="1057"
     inkscape:window-x="-8"
     inkscape:window-y="-8"
     inkscape:window-maximized="1"
     inkscape:current-layer="layer1" /><defs
     id="defs1" /><g
     inkscape:label="Layer 1"
     inkscape:groupmode="layer"
     id="layer1"
     transform="translate(46.186994,-206.89764)"><path
       id="path10"
       style="fill:#f9f9f9;stroke-width:7.76843;stroke-linecap:round"
       d="m -42.186526,207.78767 c -0.240507,0 -0.469391,0.0475 -0.678512,0.1328 l 0.649573,1.2237 1.76475,0.20309 -1.23455,1.27692 0.272335,1.34618 h 3.021004 c 0.991337,0 1.789555,-0.79822 1.789555,-1.78956 v -0.60358 c 0,-0.99134 -0.798218,-1.78955 -1.789555,-1.78955 z"
       sodipodi:nodetypes="scccccsssss" /><path
       sodipodi:type="star"
       style="fill:#ff0000;fill-opacity:1;stroke:#000000;stroke-width:1.01498;stroke-linecap:round;stroke-dasharray:none;stroke-opacity:1;paint-order:stroke fill markers"
       id="path11"
       inkscape:flatsided="false"
       sodipodi:sides="5"
       sodipodi:cx="-84.577484"
       sodipodi:cy="334.89511"
       sodipodi:r1="4.5247688"
       sodipodi:r2="2.2623847"
       sodipodi:arg1="0.52359878"
       sodipodi:arg2="1.1519173"
       inkscape:rounded="0"
       inkscape:randomized="0"
       d="m -80.658919,337.1575 -2.99837,-0.1956 -1.860947,2.3591 -0.740528,-2.91206 -2.818702,-1.04086 2.540699,-1.60416 0.118894,-3.00239 2.310765,1.92063 2.892182,-0.81471 -1.112567,2.79118 z"
       inkscape:transform-center-x="0.024571494"
       inkscape:transform-center-y="-0.23193895"
       transform="matrix(0.54694587,0.22428293,-0.22428293,0.54694587,78.401521,46.048614)" /><path
       style="font-weight:bold;font-size:3.88477px;line-height:1;font-family:Poppins;-inkscape-font-specification:'Poppins Bold';text-align:center;letter-spacing:-0.275171px;text-anchor:middle;fill:#1a1a1a;stroke-width:8.93191;stroke-linecap:round"
       d="m -37.780592,209.0925 h -1.212048 v 0.5361 q 0.07769,-0.0855 0.217547,-0.13986 0.139852,-0.0544 0.303012,-0.0544 0.291358,0 0.481712,0.13208 0.194238,0.13208 0.283588,0.34186 0.08935,0.20978 0.08935,0.45452 0,0.45451 -0.256395,0.72256 -0.256395,0.26417 -0.722567,0.26417 -0.310782,0 -0.539983,-0.10489 -0.229202,-0.10877 -0.353514,-0.29913 -0.124313,-0.19035 -0.135967,-0.43898 h 0.648756 q 0.02331,0.12043 0.112658,0.20201 0.08935,0.0777 0.244741,0.0777 0.182584,0 0.271934,-0.11655 0.08935,-0.11654 0.08935,-0.31078 0,-0.19035 -0.09323,-0.29136 -0.09323,-0.101 -0.271934,-0.101 -0.132082,0 -0.217547,0.066 -0.08547,0.0622 -0.112658,0.16705 h -0.640987 v -1.68988 h 1.814187 z"
       id="text11"
       aria-label="5" /></g></svg>
