<?xml version="1.0" encoding="UTF-8" standalone="no"?>
<!-- Created with Inkscape (http://www.inkscape.org/) -->

<svg
   width="9.5846233mm"
   height="6.1209121mm"
   viewBox="0 0 9.5846233 6.1209121"
   version="1.1"
   id="svg1"
   xml:space="preserve"
   inkscape:version="1.3 (0e150ed6c4, 2023-07-21)"
   sodipodi:docname="bintang.svg"
   xmlns:inkscape="http://www.inkscape.org/namespaces/inkscape"
   xmlns:sodipodi="http://sodipodi.sourceforge.net/DTD/sodipodi-0.dtd"
   xmlns="http://www.w3.org/2000/svg"
   xmlns:svg="http://www.w3.org/2000/svg"><sodipodi:namedview
     id="namedview1"
     pagecolor="#ffffff"
     bordercolor="#000000"
     borderopacity="0.25"
     inkscape:showpageshadow="2"
     inkscape:pageopacity="0.0"
     inkscape:pagecheckerboard="0"
     inkscape:deskcolor="#d1d1d1"
     inkscape:document-units="mm"
     inkscape:zoom="1.0847363"
     inkscape:cx="-133.67304"
     inkscape:cy="895.60936"
     inkscape:window-width="1858"
     inkscape:window-height="1057"
     inkscape:window-x="-8"
     inkscape:window-y="-8"
     inkscape:window-maximized="1"
     inkscape:current-layer="layer1" /><defs
     id="defs1" /><g
     inkscape:label="Layer 1"
     inkscape:groupmode="layer"
     id="layer1"
     transform="translate(35.332784,-206.89764)"><path
       id="path12"
       style="fill:#f9f9f9;stroke-width:7.76843;stroke-linecap:round"
       d="m -31.332314,207.78767 c -0.240507,0 -0.469391,0.0475 -0.678512,0.1328 l 0.649573,1.2237 1.76475,0.20309 -1.23455,1.27692 0.272335,1.34618 h 3.021004 c 0.991337,0 1.789555,-0.79822 1.789555,-1.78956 v -0.60358 c 0,-0.99134 -0.798218,-1.78955 -1.789555,-1.78955 z"
       sodipodi:nodetypes="scccccsssss" /><path
       sodipodi:type="star"
       style="fill:#ff0000;fill-opacity:1;stroke:#000000;stroke-width:1.01498;stroke-linecap:round;stroke-dasharray:none;stroke-opacity:1;paint-order:stroke fill markers"
       id="path13"
       inkscape:flatsided="false"
       sodipodi:sides="5"
       sodipodi:cx="-84.577484"
       sodipodi:cy="334.89511"
       sodipodi:r1="4.5247688"
       sodipodi:r2="2.2623847"
       sodipodi:arg1="0.52359878"
       sodipodi:arg2="1.1519173"
       inkscape:rounded="0"
       inkscape:randomized="0"
       d="m -80.658919,337.1575 -2.99837,-0.1956 -1.860947,2.3591 -0.740528,-2.91206 -2.818702,-1.04086 2.540699,-1.60416 0.118894,-3.00239 2.310765,1.92063 2.892182,-0.81471 -1.112567,2.79118 z"
       inkscape:transform-center-x="0.024571494"
       inkscape:transform-center-y="-0.23193895"
       transform="matrix(0.54694587,0.22428293,-0.22428293,0.54694587,89.255733,46.048614)" /><path
       style="font-weight:bold;font-size:3.88477px;line-height:1;font-family:Poppins;-inkscape-font-specification:'Poppins Bold';text-align:center;letter-spacing:-0.275171px;text-anchor:middle;fill:#1a1a1a;stroke-width:8.93191;stroke-linecap:round"
       d="m -27.495496,209.27897 q -0.03108,-0.14374 -0.108773,-0.21367 -0.0777,-0.0738 -0.221432,-0.0738 -0.221432,0 -0.318551,0.19424 -0.09712,0.19036 -0.101004,0.60603 0.08547,-0.13597 0.24474,-0.21367 0.16316,-0.0777 0.357399,-0.0777 0.380707,0 0.609909,0.24085 0.233086,0.24086 0.233086,0.67207 0,0.28359 -0.116543,0.49725 -0.112658,0.21366 -0.33409,0.33409 -0.217547,0.12043 -0.516675,0.12043 -0.598254,0 -0.83134,-0.37294 -0.233087,-0.37682 -0.233087,-1.07997 0,-0.7381 0.244741,-1.0955 0.248625,-0.36129 0.792493,-0.36129 0.291358,0 0.489481,0.11655 0.202008,0.11266 0.303012,0.29913 0.104889,0.18646 0.124313,0.4079 z m -0.306897,0.74587 q -0.167045,0 -0.279703,0.10101 -0.108774,0.0971 -0.108774,0.2797 0,0.18647 0.101004,0.29136 0.104889,0.10489 0.295243,0.10489 0.17093,0 0.268049,-0.10101 0.101004,-0.10489 0.101004,-0.28359 0,-0.18258 -0.09712,-0.28747 -0.09712,-0.10489 -0.279704,-0.10489 z"
       id="text13"
       aria-label="6" /></g></svg>
